<?xml version="1.0" ?><!-- Uploaded to: SVG Repo, www.svgrepo.com, Generator: SVG Repo Mixer Tools -->
<svg width="800px" height="800px" viewBox="0 0 64 64" id="icons" xmlns="http://www.w3.org/2000/svg"><defs><style>.cls-1{fill:#231f20;}</style></defs><title/><path class="cls-1" d="M32,22A10,10,0,1,0,42,32,10,10,0,0,0,32,22Zm0,16a6,6,0,1,1,6-6A6,6,0,0,1,32,38Z"/><path class="cls-1" d="M57.85,28,47.78,11.65A7.69,7.69,0,0,0,41.22,8H22.78a7.69,7.69,0,0,0-6.56,3.65L6.15,28a7.68,7.68,0,0,0,0,8.1l10.07,16.3A7.69,7.69,0,0,0,22.78,56H41.22a7.69,7.69,0,0,0,6.56-3.65l10.07-16.3A7.68,7.68,0,0,0,57.85,28Zm-3.4,6L44.37,50.24A3.67,3.67,0,0,1,41.22,52H22.78a3.67,3.67,0,0,1-3.15-1.76L9.55,34a3.7,3.7,0,0,1,0-3.9L19.63,13.76A3.67,3.67,0,0,1,22.78,12H41.22a3.67,3.67,0,0,1,3.15,1.76L54.45,30.05A3.7,3.7,0,0,1,54.45,34Z"/></svg>