<?xml version="1.0" ?>
<!DOCTYPE svg  PUBLIC '-//W3C//DTD SVG 1.1//EN'  'http://www.w3.org/Graphics/SVG/1.1/DTD/svg11.dtd'>
<!-- Uploaded to: SVG Repo, www.svgrepo.com, Generator: SVG Repo Mixer Tools -->
<svg fill="#000000" width="800px" height="800px" viewBox="0 0 64 64" enable-background="new 0 0 64 64" id="Layer_1" version="1.1" xml:space="preserve" xmlns="http://www.w3.org/2000/svg" xmlns:xlink="http://www.w3.org/1999/xlink">
<g>
<path d="M21.78,31.292c-0.535,0-1.07-0.061-1.596-0.184c-1.897-0.444-3.548-1.639-5.049-3.653c-0.33-0.443-0.238-1.069,0.205-1.399   s1.069-0.239,1.399,0.204c1.223,1.644,2.462,2.564,3.9,2.901c1.516,0.356,3.154-0.02,4.492-1.029   c0.574-0.432,1.098-1.003,1.697-1.852c0.32-0.45,0.943-0.559,1.394-0.239c0.451,0.318,0.558,0.942,0.24,1.394   c-0.45,0.637-1.16,1.567-2.128,2.295C24.977,30.753,23.378,31.292,21.78,31.292z"/>
</g>
<g>
<path d="M42.132,31.292c-0.535,0-1.07-0.061-1.597-0.184c-1.897-0.443-3.549-1.639-5.049-3.653   c-0.33-0.443-0.238-1.069,0.204-1.399c0.444-0.331,1.069-0.238,1.399,0.204c1.224,1.644,2.463,2.564,3.9,2.901   c1.519,0.356,3.153-0.021,4.492-1.029c0.573-0.432,1.097-1.002,1.697-1.852c0.318-0.45,0.941-0.558,1.394-0.239   c0.451,0.318,0.559,0.942,0.239,1.394c-0.45,0.637-1.16,1.568-2.128,2.295C45.328,30.753,43.729,31.292,42.132,31.292z"/>
</g>
<g>
<path d="M31.983,31.292c-0.536,0-1.07-0.061-1.597-0.184c-1.57-0.367-2.95-1.23-4.219-2.637c-0.37-0.41-0.337-1.043,0.073-1.412   c0.41-0.372,1.042-0.337,1.412,0.072c0.986,1.094,2.029,1.758,3.189,2.029c1.517,0.356,3.154-0.021,4.492-1.029   c0.341-0.256,0.667-0.566,1-0.95c0.36-0.419,0.995-0.463,1.41-0.102c0.418,0.361,0.463,0.993,0.102,1.41   c-0.427,0.493-0.855,0.898-1.31,1.24C35.18,30.753,33.581,31.292,31.983,31.292z"/>
</g>
<g>
<path d="M24.894,17.378c-1.311,0-2.343-0.005-2.909-0.017c-0.552-0.012-0.991-0.469-0.979-1.021c0.012-0.545,0.457-0.979,1-0.979   c0.007,0,0.015,0,0.021,0c1.76,0.039,8.182,0.003,13.344-0.024c2.801-0.015,5.293-0.028,6.623-0.028c0.553,0,1,0.447,1,1   s-0.447,1-1,1c-1.328,0-3.816,0.014-6.612,0.028C31.847,17.355,27.722,17.378,24.894,17.378z"/>
</g>
<g>
<path d="M15.937,27.857c-0.168,0-0.338-0.042-0.495-0.132c-0.48-0.273-0.646-0.884-0.373-1.364c0.674-1.18,1.858-3.221,3.034-5.246   c1.209-2.083,2.41-4.151,3.034-5.248c0.273-0.48,0.883-0.648,1.364-0.375c0.48,0.273,0.647,0.884,0.375,1.363   c-0.626,1.101-1.83,3.175-3.042,5.264c-1.173,2.021-2.355,4.057-3.027,5.234C16.622,27.677,16.284,27.857,15.937,27.857z"/>
</g>
<g>
<path d="M48.063,27.805c-0.348,0-0.685-0.181-0.869-0.504c-0.662-1.16-1.818-3.151-2.974-5.142c-1.23-2.12-2.461-4.24-3.096-5.356   c-0.273-0.479-0.105-1.091,0.375-1.363c0.483-0.273,1.091-0.104,1.363,0.375c0.633,1.113,1.86,3.227,3.087,5.341   c1.158,1.995,2.317,3.991,2.98,5.153c0.274,0.479,0.107,1.091-0.372,1.364C48.402,27.763,48.231,27.805,48.063,27.805z"/>
</g>
<g>
<path d="M41.719,48.691c-0.013,0-0.025,0-0.038,0c-0.656-0.004-1.936-0.005-3.561-0.005c-5.2-0.002-13.903-0.005-17.087-0.136   c-3.541-0.144-3.576-3.618-3.589-4.926c-0.033-3.218,0.022-8.533,0.059-12.05l0.02-1.957c0.005-0.55,0.452-0.991,1-0.991   c0.003,0,0.006,0,0.009,0c0.552,0.005,0.996,0.457,0.991,1.009l-0.02,1.96c-0.037,3.509-0.091,8.812-0.059,12.01   c0.022,2.207,0.413,2.896,1.671,2.947c3.144,0.129,11.822,0.132,17.007,0.134c1.63,0,2.914,0.001,3.572,0.005   c0.718,0.025,1.26-0.169,1.621-0.528c0.59-0.586,0.714-1.666,0.714-2.469c0-1.27-0.015-3.928-0.029-6.597   c-0.015-2.736-0.03-5.484-0.029-6.759c0-0.553,0.448-1,1-1l0,0c0.553,0,1,0.448,1,1c-0.001,1.273,0.015,4.016,0.029,6.748   c0.015,2.673,0.029,5.336,0.029,6.607c0,1.72-0.438,3.027-1.304,3.888C43.983,48.318,42.973,48.691,41.719,48.691z"/>
</g>
<g>
<path d="M26.696,48.653c-0.54,0-0.984-0.43-0.999-0.973c-0.068-2.45-0.032-4.818,0.008-6.607c0.027-1.244,0.155-2.536,0.898-3.557   c0.255-0.352,0.772-0.788,2.513-1.056c2.136-0.327,5.946-0.335,7.337,0.694c1.392,1.029,1.61,3.002,1.617,4.087   c0.006,0.981,0.004,2.057,0.001,3.13c-0.002,1.098-0.005,2.192,0.002,3.179c0.004,0.553-0.441,1.003-0.993,1.007   c-0.003,0-0.005,0-0.007,0c-0.55,0-0.996-0.443-1-0.993c-0.007-0.992-0.004-2.093-0.002-3.196c0.003-1.067,0.005-2.139-0.001-3.114   c-0.008-1.191-0.309-2.123-0.807-2.491c-0.978-0.724-6.119-0.6-7.085-0.01c-0.382,0.579-0.455,1.478-0.474,2.365   c-0.039,1.766-0.075,4.101-0.008,6.508c0.016,0.552-0.419,1.012-0.972,1.027C26.715,48.653,26.705,48.653,26.696,48.653z"/>
</g>
</svg>